<svg width="366" height="192" viewBox="0 0 366 192" fill="none" xmlns="http://www.w3.org/2000/svg">
<g clip-path="url(#clip0_94_8)">
<path fill-rule="evenodd" clip-rule="evenodd" d="M201.9 67.5938C217.072 56.219 237.59 55.0003 254.021 64.4871C270.453 73.974 279.657 92.3524 277.392 111.179L275.228 129.178C275.045 130.77 275.367 132.37 276.17 133.757C276.973 135.144 278.197 136.228 279.659 136.865L296.356 143.997C313.809 151.453 325.144 168.592 325.14 187.556C325.151 206.528 313.845 223.66 296.396 231.1L279.713 238.228C278.241 238.849 277.012 239.93 276.212 241.316C275.412 242.702 275.09 244.307 275.288 245.892L277.457 263.904C279.738 282.735 270.554 301.092 254.119 310.569C237.697 320.054 217.187 318.807 202.003 307.42L187.479 296.527C186.196 295.579 184.645 295.061 183.042 295.059C181.439 295.058 179.892 295.579 178.606 296.532L164.1 307.406C148.928 318.781 128.41 320 111.978 310.513C95.5467 301.026 86.3433 282.648 88.608 263.821L90.7722 245.822C90.9549 244.23 90.6325 242.63 89.8295 241.243C89.0265 239.856 87.8031 238.772 86.3405 238.135L69.6441 231.003C52.1909 223.547 40.8564 206.408 40.8599 187.444C40.8493 168.472 52.1554 151.34 69.6039 143.9L86.2874 136.772C87.7592 136.151 88.9878 135.07 89.7878 133.684C90.5878 132.298 90.9102 130.693 90.7119 129.108L88.543 111.096C86.262 92.2654 95.4461 73.9078 111.881 64.4311C128.303 54.9462 148.813 56.1926 163.997 67.5795L178.521 78.4729C179.804 79.4211 181.355 79.9388 182.958 79.9405C184.561 79.9422 186.108 79.4214 187.394 78.4675L201.9 67.5938Z" fill="#FCDE9C"/>
</g>
<defs>
<clipPath id="clip0_94_8">
<rect width="366" height="192" fill="white"/>
</clipPath>
</defs>
</svg>
