<svg width="366" height="192" viewBox="0 0 366 192" fill="none" xmlns="http://www.w3.org/2000/svg">
<g clip-path="url(#clip0_94_10)">
<path fill-rule="evenodd" clip-rule="evenodd" d="M201.9 124.406C217.072 135.781 237.59 137 254.021 127.513C270.453 118.026 279.657 99.6476 277.392 80.8206L275.228 62.8217C275.045 61.2305 275.367 59.6304 276.17 58.243C276.973 56.8556 278.197 55.7721 279.659 55.135L296.356 48.0029C313.809 40.5468 325.144 23.4076 325.14 4.44397C325.151 -14.5278 313.845 -31.6602 296.396 -39.1003L279.713 -46.2281C278.241 -46.8488 277.012 -47.9304 276.212 -49.3161C275.412 -50.7017 275.09 -52.3065 275.288 -53.8915L277.457 -71.9037C279.738 -90.7346 270.554 -109.092 254.119 -118.569C237.697 -128.054 217.187 -126.807 202.003 -115.42L187.479 -104.527C186.196 -103.579 184.645 -103.061 183.042 -103.059C181.439 -103.058 179.892 -103.579 178.606 -104.532L164.1 -115.406C148.928 -126.781 128.41 -128 111.978 -118.513C95.5467 -109.026 86.3433 -90.6475 88.608 -71.8205L90.7722 -53.8217C90.9549 -52.2305 90.6325 -50.6304 89.8295 -49.243C89.0265 -47.8556 87.8031 -46.7721 86.3405 -46.135L69.6441 -39.0028C52.1909 -31.5467 40.8564 -14.4075 40.8599 4.55606C40.8493 23.5278 52.1554 40.6602 69.6039 48.1004L86.2874 55.2281C87.7592 55.8489 88.9878 56.9304 89.7878 58.3161C90.5878 59.7018 90.9102 61.3066 90.7119 62.8915L88.543 80.9037C86.262 99.7346 95.4461 118.092 111.881 127.569C128.303 137.054 148.813 135.807 163.997 124.421L178.521 113.527C179.804 112.579 181.355 112.061 182.958 112.059C184.561 112.058 186.108 112.579 187.394 113.532L201.9 124.406Z" fill="#FCDE9C"/>
</g>
<defs>
<clipPath id="clip0_94_10">
<rect width="366" height="192" fill="white" transform="matrix(1 0 0 -1 0 192)"/>
</clipPath>
</defs>
</svg>
