<svg width="129" height="43" viewBox="0 0 129 43" fill="none" xmlns="http://www.w3.org/2000/svg">
<path fill-rule="evenodd" clip-rule="evenodd" d="M29.7953 28.1138C29.7953 29.0642 29.0199 29.8357 28.0635 29.8357C27.1082 29.8357 26.3328 29.0642 26.3328 28.1138C26.3328 27.8124 26.0866 27.5677 25.7836 27.5677C25.4806 27.5677 25.2344 27.8124 25.2344 28.1138C25.2344 29.6671 26.5022 30.9281 28.0635 30.9281C29.6259 30.9281 30.8937 29.6671 30.8937 28.1138C30.8937 27.8124 30.6475 27.5677 30.3445 27.5677C30.0415 27.5677 29.7953 27.8124 29.7953 28.1138Z" fill="black"/>
<path fill-rule="evenodd" clip-rule="evenodd" d="M38.3094 41.6918C38.6578 40.8457 39.2908 39.1841 39.4534 37.9223C39.492 37.6232 39.7673 37.4118 40.0681 37.45C40.3688 37.4884 40.5814 37.7622 40.543 38.0613C40.3876 39.2673 39.8346 40.8159 39.4547 41.7792C39.9836 41.8203 40.4919 41.8608 40.9746 41.8998C41.2933 41.1384 42.0544 39.1057 42.3498 36.4427C42.3829 36.1431 42.6546 35.9267 42.9558 35.9598C43.2571 35.9928 43.4747 36.2629 43.4416 36.5625C43.1668 39.0393 42.5087 41.0015 42.1208 41.992C44.2586 42.1073 46.1631 40.6306 46.5621 38.5257C48.1476 29.7829 50.7288 8.56342 39.5759 3.53544C34.8419 1.40135 30.6382 2.90622 28.4162 4.10121C27.4425 4.62618 26.2438 4.4977 25.4051 3.77844C23.5337 2.17827 19.6574 -0.0916671 13.4793 1.03356C-3.0027 4.03592 -0.438194 28.9886 1.22541 38.7603C1.61854 40.946 3.63477 42.464 5.85671 42.2476C11.0442 41.7239 20.2356 40.8949 25.6826 41.0065C29.5096 41.085 34.3424 41.3938 38.3094 41.6918ZM12.9127 29.244C16.5049 33.2152 23.5517 34.7914 29.1329 34.3162C37.3884 33.6136 39.7621 29.04 39.82 20.2272C40.2018 20.3225 40.5843 20.4231 40.9677 20.53C41.1088 20.5692 41.2597 20.5508 41.387 20.4789C41.5143 20.4067 41.6073 20.2875 41.6457 20.1469C41.6457 20.1469 42.1711 18.2263 42.1023 15.9593C42.0549 14.4089 41.7264 12.7039 40.799 11.3159C40.6312 11.065 40.2902 10.9966 40.0376 11.1635C39.7854 11.3302 39.7165 11.6695 39.8841 11.9204C40.696 13.1359 40.9629 14.6348 41.0045 15.9922C41.0468 17.391 40.8459 18.647 40.7077 19.3271C29.3079 16.3115 18.8863 18.2964 16.5576 18.8139C15.8627 16.6182 16.6786 13.5843 16.6786 13.5843C16.7456 13.3287 16.619 13.0622 16.3784 12.9511C16.1375 12.84 15.8513 12.9161 15.6983 13.132C15.6983 13.132 13.0748 16.7602 14.3542 24.7276C13.3556 23.4009 12.1389 21.076 12.3136 17.7622C12.3295 17.4613 12.0968 17.204 11.7942 17.1882C11.4914 17.1724 11.2327 17.4039 11.2168 17.705C11.1615 18.7537 11.233 19.7128 11.3894 20.5826C10.3162 19.4187 8.1443 17.6137 7.21772 20.8153C6.1278 24.5815 8.93639 29.9951 12.0097 28.564C12.077 28.515 12.1445 28.4616 12.2101 28.4039C12.4325 28.2086 12.6469 27.9656 12.6811 27.6583C12.7144 27.3587 12.9861 27.1423 13.2873 27.1755C13.5886 27.2084 13.8062 27.4785 13.7729 27.7781C13.7083 28.3597 13.3578 28.8531 12.9374 29.2224C12.9291 29.2298 12.9209 29.2369 12.9127 29.244ZM9.40868 5.50419C9.40868 5.50419 5.48555 7.37948 4.37181 12.1263C4.30298 12.4198 4.4867 12.7137 4.78188 12.7821C5.07706 12.8506 5.37277 12.6678 5.4416 12.3743C6.42907 8.16562 9.88732 6.48725 9.88732 6.48725C10.16 6.35588 10.2744 6.0289 10.1423 5.75773C10.0102 5.48629 9.68136 5.37282 9.40868 5.50419ZM10.317 8.13955C10.317 8.13955 8.1721 8.91989 7.60291 11.3138C7.53302 11.6071 7.71596 11.9017 8.01088 11.971C8.30606 12.0405 8.60203 11.8585 8.67192 11.5653C9.10026 9.76368 10.6987 9.16395 10.6987 9.16395C10.9831 9.05916 11.1281 8.74455 11.0228 8.46206C10.9177 8.17931 10.6013 8.03477 10.317 8.13955Z" fill="black"/>
<path fill-rule="evenodd" clip-rule="evenodd" d="M19.4334 19.8419C20.3155 19.8419 20.7042 20.554 20.7042 21.431C20.7042 22.308 20.3155 23.0201 19.4334 23.0201C18.5513 23.0201 18.1626 22.308 18.1626 21.431C18.1626 20.554 18.5513 19.8419 19.4334 19.8419Z" fill="black"/>
<path fill-rule="evenodd" clip-rule="evenodd" d="M35.8438 19.8419C36.7259 19.8419 37.1145 20.554 37.1145 21.431C37.1145 22.308 36.7259 23.0201 35.8438 23.0201C34.9616 23.0201 34.573 22.308 34.573 21.431C34.573 20.554 34.9616 19.8419 35.8438 19.8419Z" fill="black"/>
<path d="M76.8365 30.9763C77.5895 30.9763 78.1114 30.6021 78.4023 29.8533C78.6927 29.1045 78.8383 27.4596 78.8383 24.9196C78.8383 22.3886 78.6927 20.7466 78.4023 19.993C78.1114 19.2394 77.5895 18.8624 76.8365 18.8624C76.0739 18.8624 75.5476 19.2394 75.2567 19.993C74.9659 20.7466 74.8207 22.3886 74.8207 24.9196C74.8207 27.4596 74.9659 29.1045 75.2567 29.8533C75.5476 30.6021 76.0739 30.9763 76.8365 30.9763ZM72.104 28.8296L70.803 30.7772C70.6221 31.0334 70.4764 31.1946 70.3669 31.2608C70.2574 31.327 70.1214 31.3606 69.9593 31.3606H69.0018C69.1253 31.114 69.2184 30.8415 69.2806 30.5427C69.3424 30.2443 69.3733 29.9051 69.3733 29.5262V16.8577C69.3733 16.3933 69.3255 16.0614 69.2305 15.8628C69.135 15.6637 68.9112 15.4219 68.5585 15.1374L67 13.8864C67.6956 13.6873 68.613 13.3769 69.7524 12.9548C70.8913 12.5331 72.5714 11.8812 74.7922 11V18.5784C75.2399 17.9998 75.8023 17.5595 76.4791 17.2558C77.1558 16.9527 77.8992 16.8011 78.7096 16.8011C80.4919 16.8011 81.9622 17.5168 83.1204 18.9477C84.278 20.3792 84.8574 22.2088 84.8574 24.436C84.8574 26.73 84.1854 28.5639 82.8415 29.9387C81.4972 31.3131 79.7105 32 77.48 32C76.2311 32 75.1612 31.7371 74.2703 31.2109C73.3789 30.6851 72.6568 29.8912 72.104 28.8296Z" fill="black"/>
<path d="M94.3731 22.9715C93.5149 23.313 92.8623 23.8508 92.4142 24.5852C91.9661 25.3201 91.7422 26.2181 91.7422 27.2797C91.7422 27.8865 91.8638 28.3696 92.1069 28.7298C92.35 29.0901 92.6669 29.2705 93.0576 29.2705C93.5627 29.2705 93.9081 29.0714 94.0943 28.6732C94.28 28.2751 94.3731 27.2797 94.3731 25.6871V22.9715ZM94.6447 29.5261C93.9201 30.3508 93.1599 30.9648 92.364 31.3672C91.5681 31.7702 90.7273 31.9717 89.8407 31.9717C88.6681 31.9717 87.7173 31.6421 86.9885 30.9835C86.2591 30.3248 85.8944 29.4786 85.8944 28.4454C85.8944 27.2226 86.4496 26.1586 87.5601 25.2534C88.6705 24.3482 90.9415 23.2372 94.3731 21.9195V20.9102C94.3731 19.8481 94.2371 19.0878 93.9655 18.6277C93.6939 18.1682 93.2482 17.9384 92.6288 17.9384C92.1233 17.9384 91.7041 18.0876 91.3703 18.3865C91.037 18.6848 90.8701 19.0571 90.8701 19.5022C90.8701 19.7392 90.8798 20.0165 90.8986 20.3341C90.9179 20.6516 90.9275 20.8531 90.9275 20.9385C90.9275 21.6302 90.7341 22.1872 90.3482 22.6088C89.9623 23.031 89.45 23.2415 88.8113 23.2415C88.2301 23.2415 87.7627 23.0593 87.41 22.6942C87.0574 22.3296 86.8814 21.8485 86.8814 21.2513C86.8814 19.9623 87.4959 18.8935 88.7255 18.0449C89.955 17.1968 91.5372 16.7723 93.472 16.7723C94.5588 16.7723 95.5428 16.9099 96.4246 17.1848C97.3064 17.4597 98.028 17.8578 98.5904 18.3793C99.0482 18.8057 99.3724 19.3032 99.5629 19.8721C99.7534 20.4406 99.849 21.2987 99.849 22.4457V26.4978C99.849 27.6256 99.9367 28.4267 100.113 28.9006C100.289 29.3746 100.573 29.6115 100.964 29.6115C101.05 29.6115 101.135 29.5923 101.221 29.5544C101.307 29.5165 101.398 29.4599 101.493 29.3841V30.3081C101.112 30.7916 100.618 31.1658 100.013 31.4315C99.4081 31.6968 98.7385 31.8297 98.0044 31.8297C97.1655 31.8297 96.4627 31.6354 95.8954 31.2464C95.3286 30.8578 94.9114 30.2846 94.6447 29.5261Z" fill="black"/>
<path d="M109.25 28.4742C109.25 29.2038 109.381 29.7277 109.643 30.0452C109.905 30.3628 110.342 30.5312 110.951 30.5499V31.3606H101.901V30.5499H101.987C102.616 30.5499 103.066 30.3911 103.338 30.0735C103.61 29.756 103.746 29.223 103.746 28.4742V23.114C103.746 22.6587 103.689 22.3225 103.574 22.1042C103.46 21.8864 103.245 21.673 102.931 21.4643L101.144 20.2132C102.325 19.7868 103.548 19.2797 104.811 18.6921C106.074 18.1044 107.387 17.4266 108.75 16.6586V19.0758C109.321 18.3174 109.989 17.749 110.751 17.3695C111.514 16.9906 112.372 16.8011 113.325 16.8011C114.888 16.8011 116.053 17.1968 116.82 17.9883C117.588 18.7799 117.971 19.9858 117.971 21.6068V28.4742C117.971 29.223 118.107 29.756 118.379 30.0735C118.65 30.3911 119.101 30.5499 119.73 30.5499H119.816V31.3606H112.467V21.7487C112.467 20.7251 112.34 20.0141 112.088 19.616C111.835 19.2178 111.409 19.0187 110.808 19.0187C110.246 19.0187 109.846 19.225 109.607 19.6376C109.369 20.0496 109.25 20.7538 109.25 21.7487V28.4742Z" fill="black"/>
<path d="M121.525 22.4457C121.525 22.0097 121.477 21.6945 121.382 21.5002C121.287 21.306 121.063 21.0709 120.71 20.796L119.151 19.545C120.286 19.1847 121.511 18.7631 122.826 18.2795C124.142 17.796 125.542 17.2558 127.03 16.6586V28.4742C127.03 29.2038 127.16 29.7277 127.423 30.0452C127.685 30.3628 128.121 30.5312 128.731 30.5499V31.3606H119.681V30.5499H119.767C120.396 30.5499 120.846 30.3911 121.118 30.0735C121.389 29.7559 121.525 29.223 121.525 28.4742V22.4457ZM121.139 13.8576C121.139 13.0618 121.418 12.3863 121.975 11.8318C122.533 11.2773 123.212 11 124.013 11C124.823 11 125.504 11.2773 126.057 11.8318C126.61 12.3863 126.886 13.0618 126.886 13.8576C126.886 14.6539 126.607 15.3293 126.05 15.8839C125.493 16.4384 124.814 16.7157 124.013 16.7157C123.212 16.7157 122.533 16.4408 121.975 15.8911C121.418 15.3413 121.139 14.6635 121.139 13.8576Z" fill="black"/>
</svg>
