<?xml version="1.0" encoding="UTF-8" standalone="no"?>
<!DOCTYPE svg PUBLIC "-//W3C//DTD SVG 1.1//EN" "http://www.w3.org/Graphics/SVG/1.1/DTD/svg11.dtd">
<svg width="100%" height="100%" viewBox="0 0 69 45" version="1.1" xmlns="http://www.w3.org/2000/svg" xmlns:xlink="http://www.w3.org/1999/xlink" xml:space="preserve" xmlns:serif="http://www.serif.com/" style="fill-rule:evenodd;clip-rule:evenodd;stroke-linejoin:round;stroke-miterlimit:2;">
    <g transform="matrix(1,0,0,1,-848,-7119)">
        <g transform="matrix(1.06667,0,0,5.28006,26.5,-18)">
            <g transform="matrix(3.17673,0,0,0.641756,631.175,-3347.07)">
                <g id="Dribbble-Light-Preview">
                    <g id="icons">
                        <path id="behance---163-" serif:id="behance-[#163]" d="M56.981,7324.12L62.069,7324.12L62.069,7322.66L56.981,7322.66L56.981,7324.12ZM59.489,7327.04C58.354,7327.04 57.492,7327.75 57.409,7329.05L61.481,7329.05C61.205,7327.5 60.52,7327.04 59.489,7327.04ZM59.648,7333.07C60.696,7333.07 61.465,7332.41 61.622,7331.85L63.826,7331.85C63.196,7333.87 61.895,7335 59.559,7335C56.578,7335 54.905,7332.88 54.905,7330.07C54.905,7323.44 64.465,7323.2 63.985,7330.69L57.409,7330.69C57.473,7332.2 58.1,7333.07 59.648,7333.07ZM49.73,7332.78C50.933,7332.78 51.775,7332.32 51.775,7331.07C51.775,7329.77 51.031,7329.21 49.782,7329.21L46.768,7329.21L46.768,7332.78L49.73,7332.78ZM49.571,7327.26C50.572,7327.26 51.263,7326.8 51.263,7325.71C51.263,7324.57 50.459,7324.22 49.36,7324.22L46.768,7324.22L46.768,7327.26L49.571,7327.26ZM49.924,7322C52.295,7322 53.943,7322.78 53.943,7325.22C53.943,7326.43 53.458,7327.33 52.233,7327.94C53.801,7328.4 54.543,7329.62 54.543,7331.23C54.543,7333.78 52.52,7335 50.1,7335L44,7335L44,7322L49.924,7322Z" style="fill:rgb(255,153,193);"/>
                    </g>
                </g>
            </g>
        </g>
    </g>
</svg>
