<?xml version="1.0" encoding="UTF-8" standalone="no"?>
<!DOCTYPE svg PUBLIC "-//W3C//DTD SVG 1.1//EN" "http://www.w3.org/Graphics/SVG/1.1/DTD/svg11.dtd">
<svg width="100%" height="100%" viewBox="0 0 326 118" version="1.1" xmlns="http://www.w3.org/2000/svg" xmlns:xlink="http://www.w3.org/1999/xlink" xml:space="preserve" xmlns:serif="http://www.serif.com/" style="fill-rule:evenodd;clip-rule:evenodd;stroke-linejoin:round;stroke-miterlimit:2;">
    <g transform="matrix(1,0,0,1,-2798,-6849)">
        <g transform="matrix(1.06667,0,0,5.28006,2001,2284)">
            <g transform="matrix(0.253422,0,2.95765e-17,0.0511958,-678.847,841.274)">
                <g transform="matrix(1.5714,0,0,1.5714,-6339.01,-1027.58)">
                    <path d="M7916.6,1135.84C7916.6,1135.84 7927,1131.62 7927.81,1124.28" style="fill:none;stroke:rgb(255,202,128);stroke-width:7.22px;stroke-linecap:round;stroke-miterlimit:1.5;"/>
                </g>
                <g transform="matrix(1.08735,0,0,1.08735,-2392.03,-83.5088)">
                    <path d="M7989.8,760.323C7989.8,772.287 7980.09,782 7968.12,782C7956.16,782 7946.45,772.287 7946.45,760.323" style="fill:none;stroke:rgb(255,202,128);stroke-width:10.44px;stroke-linecap:round;stroke-miterlimit:1.5;"/>
                </g>
                <g id="i" transform="matrix(5.51189,0,-6.43285e-16,5.51189,3915.11,199.636)">
                    <path d="M446.831,124.222C447.484,122.627 448.671,119.494 448.976,117.115C449.049,116.551 449.565,116.152 450.129,116.224C450.692,116.297 451.091,116.813 451.019,117.377C450.728,119.651 449.691,122.571 448.979,124.387C449.97,124.465 450.923,124.541 451.828,124.614C452.426,123.179 453.853,119.346 454.407,114.325C454.469,113.76 454.978,113.352 455.543,113.415C456.108,113.477 456.516,113.986 456.454,114.551C455.939,119.221 454.705,122.921 453.978,124.788C457.986,125.006 461.557,122.221 462.305,118.253C465.278,101.769 470.117,61.76 449.206,52.28C440.329,48.256 432.447,51.094 428.281,53.347C426.456,54.337 424.208,54.095 422.635,52.739C419.126,49.721 411.858,45.441 400.274,47.563C369.37,53.224 374.178,100.271 377.298,118.695C378.035,122.816 381.815,125.678 385.981,125.27C395.708,124.283 412.942,122.72 423.156,122.93C430.331,123.078 439.393,123.661 446.831,124.222ZM449.664,83.752C450.379,83.931 451.097,84.121 451.816,84.322C452.08,84.396 452.363,84.362 452.601,84.226C452.84,84.091 453.015,83.865 453.087,83.6C453.087,83.6 454.072,79.979 453.943,75.705C453.854,72.782 453.238,69.567 451.499,66.95C451.185,66.477 450.545,66.348 450.072,66.663C449.598,66.977 449.469,67.617 449.784,68.09C451.306,70.381 451.807,73.208 451.884,75.767C451.964,78.404 451.587,80.773 451.328,82.055C429.953,76.369 410.412,80.111 406.046,81.087C404.743,76.947 406.273,71.227 406.273,71.227C406.398,70.745 406.161,70.243 405.71,70.033C405.258,69.824 404.721,69.967 404.435,70.374C404.435,70.374 399.515,77.215 401.914,92.237C400.042,89.736 397.761,85.352 398.089,79.104C398.118,78.537 397.682,78.052 397.114,78.022C396.547,77.992 396.062,78.429 396.032,78.996C395.928,80.974 396.062,82.782 396.355,84.422C394.343,82.228 390.271,78.824 388.533,84.861C386.436,92.149 392.04,102.712 397.978,99.228C404.21,107.835 418.476,111.27 429.625,110.316C445.104,108.991 449.555,100.368 449.664,83.752ZM392.642,55.992C392.642,55.992 385.286,59.528 383.198,68.478C383.068,69.031 383.413,69.585 383.966,69.715C384.52,69.844 385.074,69.499 385.203,68.946C387.055,61.01 393.539,57.846 393.539,57.846C394.05,57.598 394.265,56.982 394.017,56.47C393.769,55.959 393.153,55.745 392.642,55.992ZM394.345,60.961C394.345,60.961 390.323,62.432 389.256,66.946C389.125,67.499 389.468,68.054 390.021,68.185C390.574,68.316 391.129,67.973 391.26,67.42C392.063,64.023 395.061,62.893 395.061,62.893C395.594,62.695 395.866,62.102 395.668,61.569C395.471,61.036 394.878,60.764 394.345,60.961Z" style="fill:rgb(255,202,128);"/>
                </g>
                <g transform="matrix(0.547221,0,0,0.492964,1963.84,336.344)">
                    <path d="M7710,651C7726.66,651 7734,666.011 7734,684.5C7734,702.989 7726.66,718 7710,718C7693.34,718 7686,702.989 7686,684.5C7686,666.011 7693.34,651 7710,651Z" style="fill:rgb(255,202,128);"/>
                </g>
                <g transform="matrix(0.547221,0,0,0.492964,2133.44,336.344)">
                    <path d="M7710,651C7726.66,651 7734,666.011 7734,684.5C7734,702.989 7726.66,718 7710,718C7693.34,718 7686,702.989 7686,684.5C7686,666.011 7693.34,651 7710,651Z" style="fill:rgb(255,202,128);"/>
                </g>
            </g>
            <g transform="matrix(0.188578,0,-1.94289e-16,0.0380961,-380.69,829.041)">
                <path d="M6036.33,1177.61C6040.89,1166.93 6051.39,1160 6063,1160C6074.61,1160 6085.11,1166.93 6089.67,1177.61L6094.03,1187.82C6094.42,1188.72 6095.08,1189.47 6095.93,1189.96C6096.78,1190.45 6097.76,1190.65 6098.73,1190.54L6109.76,1189.21C6121.29,1187.82 6132.54,1193.44 6138.34,1203.5C6144.15,1213.56 6143.4,1226.11 6136.43,1235.4L6129.77,1244.29C6129.18,1245.07 6128.86,1246.02 6128.86,1247C6128.86,1247.98 6129.18,1248.93 6129.77,1249.71L6136.43,1258.6C6143.4,1267.89 6144.15,1280.44 6138.34,1290.5C6132.54,1300.56 6121.29,1306.18 6109.76,1304.79L6098.73,1303.46C6097.76,1303.35 6096.78,1303.55 6095.93,1304.04C6095.08,1304.53 6094.42,1305.28 6094.03,1306.18L6089.67,1316.39C6085.11,1327.07 6074.61,1334 6063,1334C6051.39,1334 6040.89,1327.07 6036.33,1316.39L6031.97,1306.18C6031.58,1305.28 6030.92,1304.53 6030.07,1304.04C6029.22,1303.55 6028.24,1303.35 6027.27,1303.46L6016.24,1304.79C6004.71,1306.18 5993.46,1300.56 5987.66,1290.5C5981.85,1280.44 5982.6,1267.89 5989.57,1258.6L5996.23,1249.71C5996.82,1248.93 5997.14,1247.98 5997.14,1247C5997.14,1246.02 5996.82,1245.07 5996.23,1244.29L5989.57,1235.4C5982.6,1226.11 5981.85,1213.56 5987.66,1203.5C5993.46,1193.44 6004.71,1187.82 6016.24,1189.21L6027.27,1190.54C6028.24,1190.65 6029.22,1190.45 6030.07,1189.96C6030.92,1189.47 6031.58,1188.72 6031.97,1187.82L6036.33,1177.61Z" style="fill:rgb(255,202,128);"/>
            </g>
            <g transform="matrix(0.188578,0,-1.94289e-16,0.0380961,-106.002,829.041)">
                <path d="M6036.33,1177.61C6040.89,1166.93 6051.39,1160 6063,1160C6074.61,1160 6085.11,1166.93 6089.67,1177.61L6094.03,1187.82C6094.42,1188.72 6095.08,1189.47 6095.93,1189.96C6096.78,1190.45 6097.76,1190.65 6098.73,1190.54L6109.76,1189.21C6121.29,1187.82 6132.54,1193.44 6138.34,1203.5C6144.15,1213.56 6143.4,1226.11 6136.43,1235.4L6129.77,1244.29C6129.18,1245.07 6128.86,1246.02 6128.86,1247C6128.86,1247.98 6129.18,1248.93 6129.77,1249.71L6136.43,1258.6C6143.4,1267.89 6144.15,1280.44 6138.34,1290.5C6132.54,1300.56 6121.29,1306.18 6109.76,1304.79L6098.73,1303.46C6097.76,1303.35 6096.78,1303.55 6095.93,1304.04C6095.08,1304.53 6094.42,1305.28 6094.03,1306.18L6089.67,1316.39C6085.11,1327.07 6074.61,1334 6063,1334C6051.39,1334 6040.89,1327.07 6036.33,1316.39L6031.97,1306.18C6031.58,1305.28 6030.92,1304.53 6030.07,1304.04C6029.22,1303.55 6028.24,1303.35 6027.27,1303.46L6016.24,1304.79C6004.71,1306.18 5993.46,1300.56 5987.66,1290.5C5981.85,1280.44 5982.6,1267.89 5989.57,1258.6L5996.23,1249.71C5996.82,1248.93 5997.14,1247.98 5997.14,1247C5997.14,1246.02 5996.82,1245.07 5996.23,1244.29L5989.57,1235.4C5982.6,1226.11 5981.85,1213.56 5987.66,1203.5C5993.46,1193.44 6004.71,1187.82 6016.24,1189.21L6027.27,1190.54C6028.24,1190.65 6029.22,1190.45 6030.07,1189.96C6030.92,1189.47 6031.58,1188.72 6031.97,1187.82L6036.33,1177.61Z" style="fill:rgb(255,202,128);"/>
            </g>
        </g>
    </g>
</svg>
