<?xml version="1.0" encoding="UTF-8" standalone="no"?>
<!DOCTYPE svg PUBLIC "-//W3C//DTD SVG 1.1//EN" "http://www.w3.org/Graphics/SVG/1.1/DTD/svg11.dtd">
<svg width="100%" height="100%" viewBox="0 0 1920 1204" version="1.1" xmlns="http://www.w3.org/2000/svg" xmlns:xlink="http://www.w3.org/1999/xlink" xml:space="preserve" xmlns:serif="http://www.serif.com/" style="fill-rule:evenodd;clip-rule:evenodd;stroke-linejoin:round;stroke-miterlimit:2;">
    <g transform="matrix(1,0,0,1,-2001,-1338)">
        <g transform="matrix(1.06667,0,0,5.28006,2001,1.50068e-13)">
            <g transform="matrix(0.9375,0,0,0.189392,-1875.94,-2.84217e-14)">
                <path d="M2001,1954.34C2018.33,1953.99 2035.17,1961.72 2046.19,1975.76L2059.44,1992.63C2060.6,1994.12 2062.22,1995.19 2064.05,1995.68C2065.87,1996.17 2067.81,1996.05 2069.56,1995.35L2089.47,1987.36C2110.29,1979 2134.08,1983.87 2149.94,1999.73C2165.8,2015.59 2170.67,2039.38 2162.31,2060.2L2154.32,2080.11C2153.62,2081.86 2153.5,2083.8 2153.99,2085.62C2154.48,2087.45 2155.55,2089.07 2157.04,2090.23L2173.91,2103.48C2191.55,2117.33 2199.23,2140.37 2193.43,2162.03C2187.62,2183.7 2169.45,2199.81 2147.25,2202.98L2126.01,2206.02C2124.14,2206.28 2122.41,2207.15 2121.07,2208.49C2119.73,2209.83 2118.87,2211.56 2118.6,2213.43L2115.57,2234.67C2112.39,2256.87 2096.28,2275.04 2074.62,2280.85C2052.95,2286.65 2029.91,2278.97 2016.06,2261.33L2002.82,2244.45C2002.29,2243.79 2001.68,2243.21 2001,2242.72L2001,1954.34Z" style="fill:rgb(255,194,107);"/>
            </g>
            <g transform="matrix(7.40827,-0.401014,1.98504,1.4966,-45887.3,914.598)">
                <path d="M6036.33,1177.61C6040.89,1166.93 6051.39,1160 6063,1160C6074.61,1160 6085.11,1166.93 6089.67,1177.61L6094.03,1187.82C6094.42,1188.72 6095.08,1189.47 6095.93,1189.96C6096.78,1190.45 6097.76,1190.65 6098.73,1190.54L6109.76,1189.21C6121.29,1187.82 6132.54,1193.44 6138.34,1203.5C6144.15,1213.56 6143.4,1226.11 6136.43,1235.4L6129.77,1244.29C6129.18,1245.07 6128.86,1246.02 6128.86,1247C6128.86,1247.98 6129.18,1248.93 6129.77,1249.71L6136.43,1258.6C6143.4,1267.89 6144.15,1280.44 6138.34,1290.5C6132.54,1300.56 6121.29,1306.18 6109.76,1304.79L6098.73,1303.46C6097.76,1303.35 6096.78,1303.55 6095.93,1304.04C6095.08,1304.53 6094.42,1305.28 6094.03,1306.18L6089.67,1316.39C6085.11,1327.07 6074.61,1334 6063,1334C6051.39,1334 6040.89,1327.07 6036.33,1316.39L6031.97,1306.18C6031.58,1305.28 6030.92,1304.53 6030.07,1304.04C6029.22,1303.55 6028.24,1303.35 6027.27,1303.46L6016.24,1304.79C6004.71,1306.18 5993.46,1300.56 5987.66,1290.5C5981.85,1280.44 5982.6,1267.89 5989.57,1258.6L5996.23,1249.71C5996.82,1248.93 5997.14,1247.98 5997.14,1247C5997.14,1246.02 5996.82,1245.07 5996.23,1244.29L5989.57,1235.4C5982.6,1226.11 5981.85,1213.56 5987.66,1203.5C5993.46,1193.44 6004.71,1187.82 6016.24,1189.21L6027.27,1190.54C6028.24,1190.65 6029.22,1190.45 6030.07,1189.96C6030.92,1189.47 6031.58,1188.72 6031.97,1187.82L6036.33,1177.61Z" style="fill:rgb(255,194,107);"/>
            </g>
            <g transform="matrix(0.684567,5.2469e-18,3.77777e-16,0.138295,-4038.38,182.377)">
                <path d="M6036.33,1177.61C6040.89,1166.93 6051.39,1160 6063,1160C6074.61,1160 6085.11,1166.93 6089.67,1177.61L6094.03,1187.82C6094.42,1188.72 6095.08,1189.47 6095.93,1189.96C6096.78,1190.45 6097.76,1190.65 6098.73,1190.54L6109.76,1189.21C6121.29,1187.82 6132.54,1193.44 6138.34,1203.5C6144.15,1213.56 6143.4,1226.11 6136.43,1235.4L6129.77,1244.29C6129.18,1245.07 6128.86,1246.02 6128.86,1247C6128.86,1247.98 6129.18,1248.93 6129.77,1249.71L6136.43,1258.6C6143.4,1267.89 6144.15,1280.44 6138.34,1290.5C6132.54,1300.56 6121.29,1306.18 6109.76,1304.79L6098.73,1303.46C6097.76,1303.35 6096.78,1303.55 6095.93,1304.04C6095.08,1304.53 6094.42,1305.28 6094.03,1306.18L6089.67,1316.39C6085.11,1327.07 6074.61,1334 6063,1334C6051.39,1334 6040.89,1327.07 6036.33,1316.39L6031.97,1306.18C6031.58,1305.28 6030.92,1304.53 6030.07,1304.04C6029.22,1303.55 6028.24,1303.35 6027.27,1303.46L6016.24,1304.79C6004.71,1306.18 5993.46,1300.56 5987.66,1290.5C5981.85,1280.44 5982.6,1267.89 5989.57,1258.6L5996.23,1249.71C5996.82,1248.93 5997.14,1247.98 5997.14,1247C5997.14,1246.02 5996.82,1245.07 5996.23,1244.29L5989.57,1235.4C5982.6,1226.11 5981.85,1213.56 5987.66,1203.5C5993.46,1193.44 6004.71,1187.82 6016.24,1189.21L6027.27,1190.54C6028.24,1190.65 6029.22,1190.45 6030.07,1189.96C6030.92,1189.47 6031.58,1188.72 6031.97,1187.82L6036.33,1177.61Z" style="fill:rgb(255,194,107);"/>
            </g>
            <g transform="matrix(0.534712,-0.0623662,0.308716,0.108021,-2774.65,628.242)">
                <path d="M6036.33,1177.61C6040.89,1166.93 6051.39,1160 6063,1160C6074.61,1160 6085.11,1166.93 6089.67,1177.61L6094.03,1187.82C6094.42,1188.72 6095.08,1189.47 6095.93,1189.96C6096.78,1190.45 6097.76,1190.65 6098.73,1190.54L6109.76,1189.21C6121.29,1187.82 6132.54,1193.44 6138.34,1203.5C6144.15,1213.56 6143.4,1226.11 6136.43,1235.4L6129.77,1244.29C6129.18,1245.07 6128.86,1246.02 6128.86,1247C6128.86,1247.98 6129.18,1248.93 6129.77,1249.71L6136.43,1258.6C6143.4,1267.89 6144.15,1280.44 6138.34,1290.5C6132.54,1300.56 6121.29,1306.18 6109.76,1304.79L6098.73,1303.46C6097.76,1303.35 6096.78,1303.55 6095.93,1304.04C6095.08,1304.53 6094.42,1305.28 6094.03,1306.18L6089.67,1316.39C6085.11,1327.07 6074.61,1334 6063,1334C6051.39,1334 6040.89,1327.07 6036.33,1316.39L6031.97,1306.18C6031.58,1305.28 6030.92,1304.53 6030.07,1304.04C6029.22,1303.55 6028.24,1303.35 6027.27,1303.46L6016.24,1304.79C6004.71,1306.18 5993.46,1300.56 5987.66,1290.5C5981.85,1280.44 5982.6,1267.89 5989.57,1258.6L5996.23,1249.71C5996.82,1248.93 5997.14,1247.98 5997.14,1247C5997.14,1246.02 5996.82,1245.07 5996.23,1244.29L5989.57,1235.4C5982.6,1226.11 5981.85,1213.56 5987.66,1203.5C5993.46,1193.44 6004.71,1187.82 6016.24,1189.21L6027.27,1190.54C6028.24,1190.65 6029.22,1190.45 6030.07,1189.96C6030.92,1189.47 6031.58,1188.72 6031.97,1187.82L6036.33,1177.61Z" style="fill:rgb(255,194,107);"/>
            </g>
        </g>
    </g>
</svg>
