<?xml version="1.0" encoding="UTF-8" standalone="no"?>
<!DOCTYPE svg PUBLIC "-//W3C//DTD SVG 1.1//EN" "http://www.w3.org/Graphics/SVG/1.1/DTD/svg11.dtd">
<svg width="100%" height="100%" viewBox="0 0 211 80" version="1.1" xmlns="http://www.w3.org/2000/svg" xmlns:xlink="http://www.w3.org/1999/xlink" xml:space="preserve" xmlns:serif="http://www.serif.com/" style="fill-rule:evenodd;clip-rule:evenodd;stroke-linejoin:round;stroke-miterlimit:2;">
    <g transform="matrix(1,0,0,1,-375,-46)">
        <g transform="matrix(1.06667,0,0,5.28006,0,6.04816e-13)">
            <g transform="matrix(0.170087,0,1.98506e-17,0.0343606,-665.91,-6.85963)">
                <g>
                    <g>
                        <g transform="matrix(1.5714,0,0,1.5714,-6339.01,-1027.58)">
                            <path d="M7916.6,1135.84C7916.6,1135.84 7927,1131.62 7927.81,1124.28" style="fill:none;stroke:rgb(84,55,114);stroke-width:7.22px;stroke-linecap:round;stroke-miterlimit:1.5;"/>
                        </g>
                        <g transform="matrix(1.08735,0,0,1.08735,-2392.03,-83.5088)">
                            <path d="M7989.8,760.323C7989.8,772.287 7980.09,782 7968.12,782C7956.16,782 7946.45,772.287 7946.45,760.323" style="fill:none;stroke:rgb(84,55,114);stroke-width:10.44px;stroke-linecap:round;stroke-miterlimit:1.5;"/>
                        </g>
                        <g id="i" transform="matrix(5.51189,0,-6.43285e-16,5.51189,3915.11,199.636)">
                            <path d="M446.831,124.222C447.484,122.627 448.671,119.494 448.976,117.115C449.049,116.551 449.565,116.152 450.129,116.224C450.692,116.297 451.091,116.813 451.019,117.377C450.728,119.651 449.691,122.571 448.979,124.387C449.97,124.465 450.923,124.541 451.828,124.614C452.426,123.179 453.853,119.346 454.407,114.325C454.469,113.76 454.978,113.352 455.543,113.415C456.108,113.477 456.516,113.986 456.454,114.551C455.939,119.221 454.705,122.921 453.978,124.788C457.986,125.006 461.557,122.221 462.305,118.253C465.278,101.769 470.117,61.76 449.206,52.28C440.329,48.256 432.447,51.094 428.281,53.347C426.456,54.337 424.208,54.095 422.635,52.739C419.126,49.721 411.858,45.441 400.274,47.563C369.37,53.224 374.178,100.271 377.298,118.695C378.035,122.816 381.815,125.678 385.981,125.27C395.708,124.283 412.942,122.72 423.156,122.93C430.331,123.078 439.393,123.661 446.831,124.222ZM449.664,83.752C450.379,83.931 451.097,84.121 451.816,84.322C452.08,84.396 452.363,84.362 452.601,84.226C452.84,84.091 453.015,83.865 453.087,83.6C453.087,83.6 454.072,79.979 453.943,75.705C453.854,72.782 453.238,69.567 451.499,66.95C451.185,66.477 450.545,66.348 450.072,66.663C449.598,66.977 449.469,67.617 449.784,68.09C451.306,70.381 451.807,73.208 451.884,75.767C451.964,78.404 451.587,80.773 451.328,82.055C429.953,76.369 410.412,80.111 406.046,81.087C404.743,76.947 406.273,71.227 406.273,71.227C406.398,70.745 406.161,70.243 405.71,70.033C405.258,69.824 404.721,69.967 404.435,70.374C404.435,70.374 399.515,77.215 401.914,92.237C400.042,89.736 397.761,85.352 398.089,79.104C398.118,78.537 397.682,78.052 397.114,78.022C396.547,77.992 396.062,78.429 396.032,78.996C395.928,80.974 396.062,82.782 396.355,84.422C394.343,82.228 390.271,78.824 388.533,84.861C386.436,92.149 392.04,102.712 397.978,99.228C404.21,107.835 418.476,111.27 429.625,110.316C445.104,108.991 449.555,100.368 449.664,83.752ZM392.642,55.992C392.642,55.992 385.286,59.528 383.198,68.478C383.068,69.031 383.413,69.585 383.966,69.715C384.52,69.844 385.074,69.499 385.203,68.946C387.055,61.01 393.539,57.846 393.539,57.846C394.05,57.598 394.265,56.982 394.017,56.47C393.769,55.959 393.153,55.745 392.642,55.992ZM394.345,60.961C394.345,60.961 390.323,62.432 389.256,66.946C389.125,67.499 389.468,68.054 390.021,68.185C390.574,68.316 391.129,67.973 391.26,67.42C392.063,64.023 395.061,62.893 395.061,62.893C395.594,62.695 395.866,62.102 395.668,61.569C395.471,61.036 394.878,60.764 394.345,60.961Z" style="fill:rgb(84,55,114);"/>
                        </g>
                        <g transform="matrix(0.547221,0,0,0.492964,1963.84,336.344)">
                            <path d="M7710,651C7726.66,651 7734,666.011 7734,684.5C7734,702.989 7726.66,718 7710,718C7693.34,718 7686,702.989 7686,684.5C7686,666.011 7693.34,651 7710,651Z" style="fill:rgb(84,55,114);"/>
                        </g>
                        <g transform="matrix(0.547221,0,0,0.492964,2133.44,336.344)">
                            <path d="M7710,651C7726.66,651 7734,666.011 7734,684.5C7734,702.989 7726.66,718 7710,718C7693.34,718 7686,702.989 7686,684.5C7686,666.011 7693.34,651 7710,651Z" style="fill:rgb(84,55,114);"/>
                        </g>
                    </g>
                    <g transform="matrix(3.90296,0,-4.55509e-16,3.90296,5759.05,-922.964)">
                        <path d="M247.44,427.598C249.001,427.598 250.083,426.818 250.686,425.257C251.288,423.696 251.59,420.267 251.59,414.972C251.59,409.696 251.288,406.273 250.686,404.702C250.083,403.131 249.001,402.345 247.44,402.345C245.859,402.345 244.768,403.131 244.165,404.702C243.562,406.273 243.261,409.696 243.261,414.972C243.261,420.267 243.562,423.696 244.165,425.257C244.768,426.818 245.859,427.598 247.44,427.598ZM237.629,423.123L234.932,427.183C234.557,427.717 234.255,428.053 234.028,428.191C233.801,428.329 233.519,428.399 233.183,428.399L231.198,428.399C231.454,427.885 231.647,427.317 231.776,426.694C231.904,426.072 231.968,425.365 231.968,424.575L231.968,398.166C231.968,397.198 231.869,396.506 231.672,396.092C231.474,395.677 231.01,395.173 230.279,394.58L227.048,391.972C228.49,391.557 230.392,390.91 232.754,390.03C235.115,389.151 238.598,387.792 243.202,385.955L243.202,401.753C244.13,400.547 245.296,399.629 246.699,398.996C248.102,398.364 249.643,398.048 251.323,398.048C255.018,398.048 258.066,399.54 260.467,402.523C262.867,405.507 264.068,409.321 264.068,413.964C264.068,418.746 262.675,422.569 259.889,425.435C257.102,428.3 253.398,429.732 248.774,429.732C246.185,429.732 243.967,429.184 242.12,428.087C240.272,426.991 238.775,425.336 237.629,423.123Z" style="fill:rgb(84,55,114);fill-rule:nonzero;"/>
                        <path d="M283.795,410.911C282.016,411.623 280.663,412.744 279.734,414.275C278.805,415.807 278.341,417.679 278.341,419.892C278.341,421.157 278.593,422.164 279.097,422.915C279.601,423.666 280.258,424.042 281.068,424.042C282.115,424.042 282.831,423.627 283.217,422.797C283.602,421.967 283.795,419.892 283.795,416.572L283.795,410.911ZM284.358,424.575C282.856,426.294 281.28,427.574 279.63,428.413C277.98,429.253 276.237,429.673 274.399,429.673C271.968,429.673 269.997,428.986 268.486,427.613C266.974,426.24 266.218,424.476 266.218,422.322C266.218,419.773 267.369,417.555 269.671,415.668C271.973,413.781 276.681,411.465 283.795,408.718L283.795,406.614C283.795,404.4 283.513,402.815 282.95,401.856C282.387,400.898 281.463,400.419 280.179,400.419C279.131,400.419 278.262,400.73 277.57,401.353C276.879,401.975 276.533,402.751 276.533,403.679C276.533,404.173 276.553,404.751 276.592,405.413C276.632,406.075 276.652,406.495 276.652,406.673C276.652,408.115 276.251,409.276 275.451,410.155C274.651,411.035 273.589,411.474 272.265,411.474C271.06,411.474 270.091,411.094 269.36,410.333C268.629,409.573 268.264,408.57 268.264,407.325C268.264,404.638 269.538,402.41 272.087,400.641C274.636,398.873 277.916,397.988 281.927,397.988C284.18,397.988 286.22,398.275 288.048,398.848C289.876,399.421 291.372,400.251 292.538,401.338C293.487,402.227 294.159,403.264 294.554,404.45C294.949,405.635 295.147,407.424 295.147,409.815L295.147,418.262C295.147,420.613 295.329,422.283 295.695,423.271C296.06,424.259 296.648,424.753 297.458,424.753C297.636,424.753 297.814,424.713 297.992,424.634C298.17,424.555 298.358,424.437 298.555,424.279L298.555,426.205C297.765,427.213 296.742,427.993 295.487,428.547C294.233,429.1 292.845,429.377 291.323,429.377C289.584,429.377 288.127,428.972 286.951,428.161C285.776,427.351 284.911,426.156 284.358,424.575Z" style="fill:rgb(84,55,114);fill-rule:nonzero;"/>
                        <path d="M314.636,422.382C314.636,423.903 314.908,424.995 315.451,425.657C315.995,426.319 316.899,426.67 318.163,426.709L318.163,428.399L299.402,428.399L299.402,426.709L299.579,426.709C300.884,426.709 301.817,426.378 302.38,425.716C302.944,425.054 303.225,423.943 303.225,422.382L303.225,411.208C303.225,410.259 303.107,409.558 302.869,409.103C302.632,408.649 302.188,408.204 301.536,407.769L297.831,405.161C300.281,404.272 302.815,403.215 305.433,401.99C308.051,400.765 310.773,399.352 313.599,397.751L313.599,402.79C314.784,401.209 316.168,400.024 317.748,399.233C319.329,398.443 321.108,398.048 323.084,398.048C326.324,398.048 328.74,398.873 330.33,400.523C331.921,402.173 332.716,404.687 332.716,408.066L332.716,422.382C332.716,423.943 332.998,425.054 333.561,425.716C334.124,426.378 335.058,426.709 336.362,426.709L336.54,426.709L336.54,428.399L321.305,428.399L321.305,408.362C321.305,406.228 321.043,404.746 320.52,403.916C319.996,403.086 319.112,402.671 317.867,402.671C316.701,402.671 315.871,403.101 315.377,403.961C314.883,404.82 314.636,406.288 314.636,408.362L314.636,422.382Z" style="fill:rgb(84,55,114);fill-rule:nonzero;"/>
                        <path d="M340.084,409.815C340.084,408.906 339.985,408.249 339.787,407.844C339.59,407.439 339.125,406.949 338.394,406.376L335.163,403.768C337.515,403.017 340.054,402.138 342.781,401.13C345.508,400.122 348.412,398.996 351.495,397.751L351.495,422.382C351.495,423.903 351.766,424.995 352.31,425.657C352.853,426.319 353.757,426.67 355.022,426.709L355.022,428.399L336.26,428.399L336.26,426.709L336.438,426.709C337.742,426.709 338.676,426.378 339.239,425.716C339.802,425.054 340.084,423.943 340.084,422.382L340.084,409.815ZM339.283,391.912C339.283,390.253 339.861,388.845 341.017,387.689C342.173,386.533 343.581,385.955 345.241,385.955C346.92,385.955 348.333,386.533 349.479,387.689C350.625,388.845 351.198,390.253 351.198,391.912C351.198,393.572 350.62,394.98 349.464,396.136C348.309,397.292 346.901,397.87 345.241,397.87C343.581,397.87 342.173,397.297 341.017,396.151C339.861,395.005 339.283,393.592 339.283,391.912Z" style="fill:rgb(84,55,114);fill-rule:nonzero;"/>
                    </g>
                </g>
            </g>
        </g>
    </g>
</svg>
